<?xml version="1.0" encoding="UTF-8" standalone="no"?>
<!DOCTYPE svg PUBLIC "-//W3C//DTD SVG 1.1//EN" "http://www.w3.org/Graphics/SVG/1.1/DTD/svg11.dtd">
<svg width="100%" height="100%" viewBox="0 0 454 454" version="1.1" xmlns="http://www.w3.org/2000/svg" xmlns:xlink="http://www.w3.org/1999/xlink" xml:space="preserve" xmlns:serif="http://www.serif.com/" style="fill-rule:evenodd;clip-rule:evenodd;stroke-linejoin:round;stroke-miterlimit:10;">
    <g id="Plate" transform="matrix(1,0,0,1,-481.888,-481.888)">
        <g id="Body" transform="matrix(0.999656,0,0,0.999656,0.465813,0.984187)">
            <g transform="matrix(-1.58539,-0.655835,-0.655835,1.58539,653.549,674.714)">
                <path d="M-0.609,0.121C-0.406,0.037 -0.178,0.037 0.024,0.121" style="fill:none;stroke:black;stroke-width:0.33px;"/>
            </g>
            <g transform="matrix(-1.21317,-1.21317,-1.21317,1.21317,496.768,673.179)">
                <path d="M0.172,1.582C0.494,1.904 1.018,1.905 1.34,1.582" style="fill:none;stroke:black;stroke-width:0.33px;"/>
            </g>
            <g transform="matrix(-1.71633,-0,0,1.71568,497.477,674.891)">
                <path d="M-90.899,0L1.653,0" style="fill:none;stroke:black;stroke-width:0.33px;"/>
            </g>
            <g transform="matrix(1.21317,-1.21317,-1.21317,-1.21317,496.769,517.102)">
                <path d="M-1.339,1.581C-1.016,1.904 -0.495,1.905 -0.172,1.582" style="fill:none;stroke:black;stroke-width:0.33px;"/>
            </g>
            <g transform="matrix(0,-1.71568,-1.71568,-0,574.391,595.14)">
                <path d="M-45.657,47.309L45.657,47.309" style="fill:none;stroke:black;stroke-width:0.33px;"/>
            </g>
            <g transform="matrix(1.21317,-1.21317,-1.21317,-1.21317,600.267,515.684)">
                <path d="M-1.34,1.582C-1.018,1.26 -0.494,1.259 -0.172,1.582" style="fill:none;stroke:black;stroke-width:0.33px;"/>
            </g>
            <g transform="matrix(1.71568,0,0,1.71568,497.477,515.392)">
                <path d="M-1.653,0L57.843,0" style="fill:none;stroke:black;stroke-width:0.33px;"/>
            </g>
            <g transform="matrix(1.21244,-1.2139,-1.2139,-1.21244,601.684,503.633)">
                <path d="M-1.34,1.583C-1.017,1.906 -0.493,1.906 -0.171,1.583" style="fill:none;stroke:black;stroke-width:0.33px;"/>
            </g>
            <g transform="matrix(0,-1.71568,-1.71568,-0,606.29,508.657)">
                <path d="M-3.099,4.751L3.099,4.751" style="fill:none;stroke:black;stroke-width:0.33px;"/>
            </g>
            <g transform="matrix(1.21317,-1.21317,-1.21317,-1.21317,656.976,502.214)">
                <path d="M-2.508,2.75C-2.186,2.428 -1.663,2.428 -1.341,2.751" style="fill:none;stroke:black;stroke-width:0.33px;"/>
            </g>
            <g transform="matrix(1.71568,0,0,1.71568,605.227,501.924)">
                <path d="M-3.306,0L26.442,0" style="fill:none;stroke:black;stroke-width:0.33px;"/>
            </g>
            <g transform="matrix(1.2139,-1.21244,-1.21244,-1.2139,658.392,497.253)">
                <path d="M-2.51,2.749C-2.188,3.072 -1.663,3.071 -1.34,2.748" style="fill:none;stroke:black;stroke-width:0.33px;"/>
            </g>
            <g transform="matrix(0,-1.71568,-1.71568,-0,659.455,498.733)">
                <path d="M-1.033,4.338L1.033,4.338" style="fill:none;stroke:black;stroke-width:0.33px;"/>
            </g>
            <g transform="matrix(1.2117,1.21464,1.21464,-1.2117,708.018,495.248)">
                <path d="M2.162,1.926C2.484,2.249 3.009,2.249 3.332,1.927" style="fill:none;stroke:black;stroke-width:0.33px;"/>
            </g>
            <g transform="matrix(1.71568,0,0,1.71568,659.102,495.543)">
                <path d="M-3.306,0L31.402,0" style="fill:none;stroke:black;stroke-width:0.33px;"/>
            </g>
            <g transform="matrix(1.2139,1.21244,1.21244,-1.2139,709.432,500.21)">
                <path d="M2.168,1.923C2.49,1.601 3.013,1.6 3.337,1.923" style="fill:none;stroke:black;stroke-width:0.33px;"/>
            </g>
            <g transform="matrix(0,1.71568,1.71568,0,710.495,498.733)">
                <path d="M-1.033,2.273L1.033,2.273" style="fill:none;stroke:black;stroke-width:0.33px;"/>
            </g>
            <g transform="matrix(1.21244,1.2139,1.2139,-1.21244,761.891,501.628)">
                <path d="M2.164,1.925C2.487,2.248 3.011,2.248 3.333,1.925" style="fill:none;stroke:black;stroke-width:0.33px;"/>
            </g>
            <g transform="matrix(1.71568,0,0,1.71568,710.141,501.924)">
                <path d="M3.306,0L33.054,0" style="fill:none;stroke:black;stroke-width:0.33px;"/>
            </g>
            <g transform="matrix(1.2139,1.21244,1.21244,-1.2139,763.307,507.299)">
                <path d="M2.168,1.923C2.49,1.6 3.013,1.6 3.336,1.922" style="fill:none;stroke:black;stroke-width:0.33px;"/>
            </g>
            <g transform="matrix(0,1.71568,1.71568,0,764.725,505.467)">
                <path d="M-1.24,2.066L1.24,2.066" style="fill:none;stroke:black;stroke-width:0.33px;"/>
            </g>
            <g transform="matrix(1.21317,1.21317,1.21317,-1.21317,815.765,508.716)">
                <path d="M0.646,0.404C0.969,0.727 1.494,0.727 1.817,0.405" style="fill:none;stroke:black;stroke-width:0.33px;"/>
            </g>
            <g transform="matrix(1.71568,0,0,1.71568,764.016,509.012)">
                <path d="M3.306,0L30.905,0" style="fill:none;stroke:black;stroke-width:0.33px;"/>
            </g>
            <g transform="matrix(0.865889,1.48115,1.48115,-0.865889,818.091,651.58)">
                <path d="M-0.759,0.693C-0.376,0.473 0.734,0.006 1.29,0.023C1.682,0.034 2.884,0.256 3.128,0.388" style="fill:none;stroke:black;stroke-width:0.33px;"/>
            </g>
            <g transform="matrix(1.71568,0,0,1.71568,816.475,651.595)">
                <path d="M1.157,-82.279L1.157,-1.014" style="fill:none;stroke:black;stroke-width:0.33px;"/>
            </g>
            <g transform="matrix(0.376911,1.67377,1.67377,-0.376911,875.318,686.624)">
                <path d="M-0.926,-1.653C-0.097,-0.946 1.125,-0.946 1.955,-1.653" style="fill:none;stroke:black;stroke-width:0.33px;"/>
            </g>
            <g transform="matrix(1.48504,0.8592,0.8592,-1.48504,829.585,642.961)">
                <path d="M-0.372,-8.913L33.974,-9.12" style="fill:none;stroke:black;stroke-width:0.33px;"/>
            </g>
            <g transform="matrix(1.71568,0,0,1.71568,835.755,757.293)">
                <path d="M0,-0.845C-0.439,-0.182 -1.334,0 -1.997,-0.441L-2.032,-0.464" style="fill:none;stroke:black;stroke-width:0.33px;"/>
            </g>
            <g transform="matrix(-0.854732,1.48762,1.48762,0.854732,873.491,755.724)">
                <path d="M-32.894,-19.037L11.018,-19.037" style="fill:none;stroke:black;stroke-width:0.33px;"/>
            </g>
            <g transform="matrix(-1.66168,-0.427083,-0.427083,1.66168,789.692,732.125)">
                <path d="M-0.471,0.059C-0.312,0.046 -0.151,0.047 0.008,0.059" style="fill:none;stroke:black;stroke-width:0.33px;"/>
            </g>
            <g transform="matrix(-1.487,-0.855805,-0.855805,1.487,799.237,723.601)">
                <path d="M-26.25,7.015L1.874,7.015" style="fill:none;stroke:black;stroke-width:0.33px;"/>
            </g>
            <g transform="matrix(-1.5771,-0.675512,-0.675512,1.5771,684.462,716.11)">
                <path d="M-0.604,0.124C-0.399,0.188 -0.18,0.189 0.025,0.124" style="fill:none;stroke:black;stroke-width:0.33px;"/>
            </g>
            <g transform="matrix(-1.69704,-0.252246,-0.252246,1.69704,687.037,709.129)">
                <path d="M-61.139,4.519L0.334,4.519" style="fill:none;stroke:black;stroke-width:0.33px;"/>
            </g>
            <g transform="matrix(1.71568,0,0,1.71568,684.337,675.292)">
                <path d="M0,23.896L-17.436,0L-17.43,0.007" style="fill:none;stroke:black;stroke-width:0.33px;"/>
            </g>
        </g>
        <g id="Cap" transform="matrix(0.999656,0,0,0.999656,0.465813,0.984187)">
            <g transform="matrix(0.697984,1.56729,2.04539,-0.910904,821.516,649.404)">
                <path d="M-0.417,-0.439C0.03,-0.589 1.023,-0.86 1.645,-0.875C2.147,-0.887 2.384,-0.765 2.693,-0.61C2.74,-0.587 2.789,-0.562 2.841,-0.538" style="fill:none;stroke:black;stroke-width:0.28px;"/>
            </g>
            <g transform="matrix(-2.17831e-05,1.71568,1.71568,2.17831e-05,886.472,581.586)">
                <path d="M-39.382,-38.554L39.38,-38.553" style="fill:none;stroke:black;stroke-width:0.33px;"/>
            </g>
            <g transform="matrix(1.71568,0,0,1.71568,871.384,681.704)">
                <path d="M0,0.728C0.668,1.009 1.438,0.696 1.719,0.027C1.761,-0.072 1.79,-0.175 1.807,-0.281" style="fill:none;stroke:black;stroke-width:0.33px;"/>
            </g>
            <g transform="matrix(1.47915,0.869304,0.869304,-1.47915,831.736,642.379)">
                <path d="M-1.158,-8.77L31.904,-8.681" style="fill:none;stroke:black;stroke-width:0.33px;"/>
            </g>
            <g transform="matrix(-1.21244,-1.2139,-1.2139,1.21244,873.774,512.338)">
                <path d="M-0.997,0.414C-0.674,0.091 -0.152,0.09 0.171,0.414" style="fill:none;stroke:black;stroke-width:0.33px;"/>
            </g>
            <g transform="matrix(0,-1.71568,-1.71568,-0,958.069,597.637)">
                <path d="M-48.72,48.72L48.72,48.72" style="fill:none;stroke:black;stroke-width:0.33px;"/>
            </g>
            <g transform="matrix(-1.21244,1.2139,1.2139,1.21244,819.62,514.344)">
                <path d="M-1.581,0.171C-1.259,-0.152 -0.736,-0.151 -0.413,0.172" style="fill:none;stroke:black;stroke-width:0.33px;"/>
            </g>
            <g transform="matrix(-1.71568,-0,0,1.71568,820.327,512.633)">
                <path d="M-30.737,0L-0.827,0" style="fill:none;stroke:black;stroke-width:0.33px;"/>
            </g>
            <g transform="matrix(1.71568,0,0,1.71568,823.179,648.018)">
                <path d="M0,0.001C-0.001,1.005 0.813,1.818 1.817,1.818C2.821,1.818 3.636,1.005 3.636,0.001C3.636,-1.004 2.821,-1.817 1.817,-1.817C0.813,-1.817 -0.001,-1.004 -0.001,0.001" style="fill:none;stroke:black;stroke-width:0.33px;"/>
            </g>
            <g transform="matrix(1.71568,0,0,1.71568,864.293,672.12)">
                <path d="M0,0.001C0,1.005 0.813,1.818 1.817,1.818C2.822,1.818 3.636,1.005 3.636,0.001C3.636,-1.003 2.822,-1.817 1.817,-1.817C0.813,-1.817 0,-1.003 0,0.001" style="fill:none;stroke:black;stroke-width:0.33px;"/>
            </g>
        </g>
        <g id="Screw-Holes" serif:id="Screw Holes" transform="matrix(0.999656,0,0,0.999656,0.465813,0.984187)">
            <g transform="matrix(1.71568,0,0,1.71568,760.952,557.923)">
                <path d="M0,0C0.001,1.004 0.814,1.818 1.818,1.818C2.822,1.818 3.637,1.004 3.637,0C3.637,-1.004 2.822,-1.818 1.818,-1.818C0.814,-1.818 0.001,-1.004 0.001,0" style="fill:none;stroke:black;stroke-width:0.33px;"/>
            </g>
            <g transform="matrix(1.71568,0,0,1.71568,599.31,568.493)">
                <path d="M0,-0.001C0,1.003 0.813,1.817 1.817,1.817C2.821,1.817 3.635,1.003 3.635,-0.001C3.635,-1.004 2.821,-1.818 1.817,-1.818C0.813,-1.818 0,-1.004 0,-0.001" style="fill:none;stroke:black;stroke-width:0.33px;"/>
            </g>
            <g transform="matrix(1.71568,0,0,1.71568,599.275,622.44)">
                <path d="M0,0C0,1.004 0.813,1.818 1.818,1.818C2.822,1.818 3.636,1.004 3.636,0C3.636,-1.004 2.822,-1.818 1.818,-1.818C0.813,-1.818 0,-1.004 0,0" style="fill:none;stroke:black;stroke-width:0.33px;"/>
            </g>
            <g transform="matrix(1.71568,0,0,1.71568,545.406,568.194)">
                <path d="M0,0C0,1.004 0.814,1.818 1.818,1.818C2.822,1.818 3.636,1.004 3.636,0C3.636,-1.004 2.822,-1.818 1.818,-1.818C0.814,-1.818 0,-1.004 0,0" style="fill:none;stroke:black;stroke-width:0.33px;"/>
            </g>
            <g transform="matrix(1.71568,0,0,1.71568,545.381,622.106)">
                <path d="M0,0.002C0,1.005 0.814,1.819 1.818,1.819C2.822,1.819 3.636,1.005 3.636,0.002C3.636,-1.003 2.822,-1.817 1.818,-1.817C0.814,-1.817 0,-1.003 0,0.002" style="fill:none;stroke:black;stroke-width:0.33px;"/>
            </g>
            <g transform="matrix(1.71568,0,0,1.71568,799.915,692.606)">
                <path d="M0,0.001C0,1.005 0.814,1.818 1.818,1.818C2.822,1.818 3.636,1.005 3.636,0C3.636,-1.004 2.822,-1.817 1.818,-1.817C0.814,-1.817 0,-1.004 0,0" style="fill:none;stroke:black;stroke-width:0.33px;"/>
            </g>
            <g transform="matrix(1.71568,0,0,1.71568,668.015,670.62)">
                <path d="M0,-0.001C0,1.004 0.814,1.817 1.818,1.817C2.822,1.817 3.636,1.004 3.636,0C3.636,-1.004 2.822,-1.818 1.818,-1.818C0.814,-1.818 0,-1.004 0,0" style="fill:none;stroke:black;stroke-width:0.33px;"/>
            </g>
        </g>
        <g id="ALPS-Cutouts" serif:id="ALPS Cutouts">
            <g transform="matrix(2.38344,0,0,2.18512,451.424,507.918)">
                <rect x="20.33" y="7.312" width="18.434" height="16.605" style="fill:none;stroke:black;stroke-width:0.25px;stroke-miterlimit:1.5;"/>
            </g>
            <g transform="matrix(2.38344,0,0,2.18512,559.141,494.453)">
                <rect x="20.33" y="7.312" width="18.434" height="16.605" style="fill:none;stroke:black;stroke-width:0.25px;stroke-miterlimit:1.5;"/>
            </g>
            <g transform="matrix(2.38344,0,0,2.18512,559.141,548.309)">
                <rect x="20.33" y="7.312" width="18.434" height="16.605" style="fill:none;stroke:black;stroke-width:0.25px;stroke-miterlimit:1.5;"/>
            </g>
            <g transform="matrix(2.38344,0,0,2.18512,559.141,602.167)">
                <rect x="20.33" y="7.312" width="18.434" height="16.605" style="fill:none;stroke:black;stroke-width:0.25px;stroke-miterlimit:1.5;"/>
            </g>
            <g transform="matrix(2.38344,0,0,2.18512,612.996,487.721)">
                <rect x="20.33" y="7.312" width="18.434" height="16.605" style="fill:none;stroke:black;stroke-width:0.25px;stroke-miterlimit:1.5;"/>
            </g>
            <g transform="matrix(2.38344,0,0,2.18512,612.996,541.579)">
                <rect x="20.33" y="7.312" width="18.434" height="16.605" style="fill:none;stroke:black;stroke-width:0.25px;stroke-miterlimit:1.5;"/>
            </g>
            <g transform="matrix(2.38344,0,0,2.18512,612.996,595.435)">
                <rect x="20.33" y="7.312" width="18.434" height="16.605" style="fill:none;stroke:black;stroke-width:0.25px;stroke-miterlimit:1.5;"/>
            </g>
            <g transform="matrix(2.38344,0,0,2.18512,666.854,602.167)">
                <rect x="20.33" y="7.312" width="18.434" height="16.605" style="fill:none;stroke:black;stroke-width:0.25px;stroke-miterlimit:1.5;"/>
            </g>
            <g transform="matrix(2.38344,0,0,2.18512,639.925,657.794)">
                <rect x="20.33" y="7.312" width="18.434" height="16.605" style="fill:none;stroke:black;stroke-width:0.25px;stroke-miterlimit:1.5;"/>
            </g>
            <g transform="matrix(2.38344,0,0,2.18512,720.71,501.183)">
                <rect x="20.33" y="7.312" width="18.434" height="16.605" style="fill:none;stroke:black;stroke-width:0.25px;stroke-miterlimit:1.5;"/>
            </g>
            <g transform="matrix(2.38344,0,0,2.18512,720.71,555.041)">
                <rect x="20.33" y="7.312" width="18.434" height="16.605" style="fill:none;stroke:black;stroke-width:0.25px;stroke-miterlimit:1.5;"/>
            </g>
            <g transform="matrix(2.38344,0,0,2.18512,720.71,608.899)">
                <rect x="20.33" y="7.312" width="18.434" height="16.605" style="fill:none;stroke:black;stroke-width:0.25px;stroke-miterlimit:1.5;"/>
            </g>
            <g transform="matrix(2.38344,0,0,2.18512,666.854,548.309)">
                <rect x="20.33" y="7.312" width="18.434" height="16.605" style="fill:none;stroke:black;stroke-width:0.25px;stroke-miterlimit:1.5;"/>
            </g>
            <g transform="matrix(2.38344,0,0,2.18512,666.854,494.453)">
                <rect x="20.33" y="7.312" width="18.434" height="16.605" style="fill:none;stroke:black;stroke-width:0.25px;stroke-miterlimit:1.5;"/>
            </g>
            <g transform="matrix(2.38344,0,0,2.18512,505.282,561.776)">
                <rect x="20.33" y="7.312" width="18.434" height="16.605" style="fill:none;stroke:black;stroke-width:0.25px;stroke-miterlimit:1.5;"/>
            </g>
            <g transform="matrix(2.38344,0,0,2.18512,451.424,561.776)">
                <rect x="20.33" y="7.312" width="18.434" height="16.605" style="fill:none;stroke:black;stroke-width:0.25px;stroke-miterlimit:1.5;"/>
            </g>
            <g transform="matrix(2.38344,0,0,2.18512,451.424,615.629)">
                <rect x="20.33" y="7.312" width="18.434" height="16.605" style="fill:none;stroke:black;stroke-width:0.25px;stroke-miterlimit:1.5;"/>
            </g>
            <g transform="matrix(2.38344,0,0,2.18512,505.282,615.629)">
                <rect x="20.33" y="7.312" width="18.434" height="16.605" style="fill:none;stroke:black;stroke-width:0.25px;stroke-miterlimit:1.5;"/>
            </g>
            <g transform="matrix(2.38344,0,0,2.18512,505.282,507.918)">
                <rect x="20.33" y="7.312" width="18.434" height="16.605" style="fill:none;stroke:black;stroke-width:0.25px;stroke-miterlimit:1.5;"/>
            </g>
            <g transform="matrix(-0.958576,1.66298,1.37328,0.791586,858.464,715.75)">
                <rect x="-7.245" y="-27.076" width="22.89" height="22.891" style="fill:none;stroke:black;stroke-width:0.32px;"/>
            </g>
            <g transform="matrix(-0.410243,1.53105,1.85406,0.496794,799.171,694.273)">
                <rect x="-3.339" y="-25.454" width="22.891" height="22.89" style="fill:none;stroke:black;stroke-width:0.32px;"/>
            </g>
        </g>
    </g>
</svg>
